<svg width="193" height="32" viewBox="0 0 193 32" fill="none" xmlns="http://www.w3.org/2000/svg">
<path d="M32.3825 15.6753V16.5334H32.2665C23.6007 16.5334 16.5704 23.4512 16.5258 32H15.7467C15.6991 23.4483 8.66589 16.5334 0 16.5334V15.6753C8.69562 15.6753 15.7467 8.70749 15.7467 0.114611V0H16.5258V0.114611C16.5258 8.70749 23.571 15.6753 32.2665 15.6753H32.3825Z" fill="url(#paint0_linear_16_20)"/>
<path d="M42.0974 26.8741V4.48H50.896C55.5165 4.48 58.6657 7.47518 58.6657 11.9602V11.9913C58.6657 16.4608 55.5165 19.4715 50.896 19.4715H46.1802V26.8741H42.0974ZM49.8833 7.75455H46.1802V16.2435H49.8833C52.8107 16.2435 54.5196 14.6916 54.5196 12.0068V11.9757C54.5196 9.29092 52.8107 7.75455 49.8833 7.75455ZM61.3718 26.8741V4.48H65.312V26.8741H61.3718ZM73.62 27.1534C70.265 27.1534 68.0023 25.1204 68.0023 22.1873V22.1563C68.0023 19.2387 70.3127 17.485 74.3796 17.2367L78.7629 16.9729V15.84C78.7629 14.1795 77.6552 13.1707 75.6614 13.1707C73.794 13.1707 72.6545 14.0243 72.4014 15.2348L72.3697 15.3744H68.7143L68.7302 15.1882C68.9674 12.2706 71.5468 10.0824 75.8037 10.0824C79.9973 10.0824 82.7031 12.2551 82.7031 15.5607V26.8741H78.7629V24.3445H78.6679C77.7025 26.0671 75.8354 27.1534 73.62 27.1534ZM71.9266 22.0321C71.9266 23.3823 73.0661 24.2048 74.7909 24.2048C77.0537 24.2048 78.7629 22.7305 78.7629 20.7751V19.5336L74.9335 19.7663C72.987 19.8905 71.9266 20.713 71.9266 22.0166V22.0321ZM92.1188 27.2C88.6057 27.2 86.9441 25.8033 86.9441 22.4201V13.4035H84.5705V10.4238H86.9441V6.24918H90.9479V10.4238H94.0653V13.4035H90.9479V22.0942C90.9479 23.7082 91.6758 24.2203 93.1157 24.2203C93.4955 24.2203 93.7963 24.1738 94.0653 24.1583V27.0603C93.6064 27.1224 92.9099 27.2 92.1188 27.2ZM103.876 27.2C98.9392 27.2 95.7583 23.972 95.7583 18.649V18.6179C95.7583 13.3414 98.9865 10.0824 103.86 10.0824C108.75 10.0824 111.994 13.3104 111.994 18.6179V18.649C111.994 23.9876 108.798 27.2 103.876 27.2ZM103.892 24.0806C106.377 24.0806 107.975 22.0942 107.975 18.649V18.6179C107.975 15.1882 106.361 13.2173 103.86 13.2173C101.408 13.2173 99.778 15.2037 99.778 18.6179V18.649C99.778 22.1097 101.376 24.0806 103.892 24.0806ZM114.526 26.8741V10.4238H118.467V13H118.546C119.416 11.2308 121.125 10.0824 123.673 10.0824C127.36 10.0824 129.465 12.4103 129.465 16.228V26.8741H125.524V17.0039C125.524 14.6606 124.417 13.3414 122.169 13.3414C119.907 13.3414 118.467 14.9554 118.467 17.3298V26.8741H114.526ZM138.342 27.2C134.655 27.2 132.551 24.8721 132.551 21.0544V10.4238H136.491V20.294C136.491 22.6219 137.598 23.941 139.845 23.941C142.108 23.941 143.548 22.3425 143.548 19.9526V10.4238H147.489V26.8741H143.548V24.2979H143.469C142.599 26.0516 140.874 27.2 138.342 27.2ZM157.284 27.2C152.885 27.2 150.369 25.1515 150.021 22.0942L150.005 21.9545H153.882L153.914 22.0942C154.214 23.5064 155.306 24.3445 157.3 24.3445C159.215 24.3445 160.37 23.584 160.37 22.3735V22.358C160.37 21.3648 159.784 20.8061 158.044 20.4181L155.259 19.8129C152.046 19.1145 150.432 17.5782 150.432 15.1416V15.1261C150.432 12.1154 153.106 10.0824 157.157 10.0824C161.335 10.0824 163.772 12.3327 163.915 15.1727L163.93 15.3434H160.259L160.243 15.2192C160.069 13.9001 158.993 12.9379 157.157 12.9379C155.417 12.9379 154.325 13.7294 154.325 14.9399V14.9554C154.325 15.9021 154.974 16.5228 156.714 16.9108L159.515 17.5161C162.981 18.2765 164.326 19.6111 164.326 22.0011V22.0166C164.326 25.1204 161.398 27.2 157.284 27.2ZM165.56 26.8741L173.726 4.48H178.315L186.48 26.8741H182.192L180.262 21.0855H171.764L169.833 26.8741H165.56ZM175.973 8.46841L172.792 17.9972H179.233L176.068 8.46841H175.973ZM188.918 26.8741V4.48H193V26.8741H188.918Z" fill="url(#paint1_linear_16_20)"/>
<defs>
<linearGradient id="paint0_linear_16_20" x1="0" y1="0" x2="0" y2="32" gradientUnits="userSpaceOnUse">
<stop stop-color="#7579FF"/>
<stop offset="1" stop-color="#B224EF"/>
</linearGradient>
<linearGradient id="paint1_linear_16_20" x1="42.0974" y1="4.48" x2="42.0974" y2="27.2" gradientUnits="userSpaceOnUse">
<stop stop-color="#7579FF"/>
<stop offset="1" stop-color="#B224EF"/>
</linearGradient>
</defs>
</svg>
